/* XPM */
static const char *icon_xpm[] = {
/* columns rows colors chars-per-pixel */
"32 32 983 2",
",o c #3899BD",
" # c #3E9AB6",
"!. c #C6E0FF",
"H# c #44ADCA",
"rO c #259FBA",
"Y@ c #0CBCD4",
"I$ c #94BAC8",
"t# c #4AB4D0",
"dX c #EAFEFF",
"9+ c #50BBD7",
"t% c #066789",
"h. c #31A1BF",
"~. c #F0FFFF",
"N# c #066187",
"Z  c #06739C",
"{# c #0679A5",
"FO c #3DB5CB",
"d  c #1287A6",
"O% c #127595",
"c. c #D7FEFF",
"=O c #0C628C",
"L. c #12759A",
"k$ c #38579A",
"5$ c #1281A9",
"^+ c #0C6895",
")O c #62ACC8",
"2# c #187093",
"{. c #187CA2",
"1o c #B2DDEF",
"n$ c #1E89AE",
"0+ c #11A8B9",
"H@ c #6ECCE6",
"6X c #1E83A9",
"&@ c #0072C0",
"@# c #93D5ED",
"a& c #057C9E",
"5  c #057C9F",
"J$ c #2A8BAA",
":o c #248AB1",
"p& c #05769A",
"<# c #2A85A5",
"W% c #309EBB",
"u@ c #55BFDB",
"o& c #05769E",
"w% c #057097",
"v# c #2A8BB1",
"3% c #308CAB",
" . c #0576A2",
"&& c #0B7DA3",
"e# c #3092B4",
"Bo c #EFF6FB",
"[+ c #5BAEC6",
"M# c #0B6B94",
"s. c #11789D",
"R@ c #003696",
"uO c #23A5BF",
"6. c #1785AA",
"pX c #369FCA",
"`% c #1D8CAD",
"CO c #16ACB1",
"c+ c #17739A",
"h@ c #3092C8",
"m% c #23819F",
"!O c #17739F",
"l+ c #176D98",
"$# c #92D8F3",
"jo c #238DB3",
"r& c #04739B",
"N. c #2994BA",
"6# c #045579",
"Lo c #238DBB",
"iX c #299AC2",
"/% c #35A2BD",
"z@ c #2982A9",
"ko c #2F95B8",
"VO c #15A9A3",
"'% c #1688A9",
"OX c #0A628D",
"^  c #DBFFFF",
"v& c #1C8FAB",
"m. c #6DC3FC",
"v@ c #106994",
"hO c #106F9D",
"U  c #1C8FB2",
"b@ c #106390",
"j% c #91C3D2",
" O c #038EAA",
" + c #53BFCD",
"yX c #1C8FB5",
"Eo c #1C7DA2",
"^X c #1C7DA4",
"~O c #1C779D",
"z# c #4DB8D5",
"|$ c #036485",
"[. c #2284AB",
"F# c #2897BB",
"P% c #0983A4",
"Q  c #60B8ED",
"h& c #097D9F",
">. c #8BD4FF",
"f@ c #0A5CA3",
"1O c #53A7C3",
"L% c #0F8AAC",
"V  c #09779E",
"xo c #C8E7F3",
"}  c #09779F",
"!# c #7EC3DF",
"0. c #097DAC",
"N% c #157999",
"H  c #0F7EA7",
"/O c #3487AB",
":$ c #41629B",
" $ c #1585AB",
"I  c #1B92B3",
"-& c #1B8CAE",
"<. c #FFFFFF",
"k@ c #409BB8",
"5% c #1B7A9A",
"n. c #72C7FF",
"~# c #46AECC",
"f+ c #46A2C0",
"So c #58B7C0",
"&X c #2187AA",
"CX c #59B4EA",
"C+ c #0F84C4",
"}O c #26AFB1",
"g. c #2D9BBB",
".+ c #83CDD8",
"m& c #0E81A2",
"#@ c #64C5D2",
".X c #086890",
"=& c #1488A6",
"]# c #087AA8",
"o. c #0E7BA1",
"LO c #58B7D9",
"<& c #5EACC6",
"(@ c #0E638B",
"T# c #8FDBEB",
"U% c #1A89AC",
"># c #459FBB",
"T+ c #459FBD",
"+O c #45A5C7",
"Z& c #01769A",
"Po c #1A89BA",
"<o c #4BACCB",
"N+ c #51ADC5",
"=X c #45A5D0",
".# c #51ADCA",
"PO c #51A7C5",
"(% c #329FBC",
"b. c #8FD5FD",
"j  c #1385A0",
".. c #0777A3",
"l@ c #328DAD",
"eO c #007985",
"F. c #07658F",
";% c #70A9D1",
"'. c #57A8C8",
"#. c #0D7EA7",
"&% c #3EA7C0",
"w$ c #0D7EA8",
"G# c #38A0C4",
" @ c #8ED2E0",
"Ro c #13799F",
"MO c #07A7E5",
"3@ c #0D608A",
"^# c #3EA7C6",
"^. c #FDFFFF",
"WO c #0D608B",
"x  c #2C98CF",
"go c #137FAA",
"Q. c #57BAE8",
"|o c #007F9A",
"%X c #197A9D",
"*$ c #8ED8ED",
"NO c #07A1E6",
"_. c #88D7F8",
"z+ c #136796",
"4& c #2594B4",
"{X c #6FCAE4",
"%+ c #4AA3C1",
".O c #50B6CF",
"KX c #44AED6",
"S+ c #18ADBD",
"a+ c #0D4E88",
"*  c #0C87A3",
"+  c #0680A4",
"/X c #2588AF",
"g# c #008BC2",
"D  c #066E98",
"O. c #0C7BA0",
"|  c #0674A1",
"%$ c #5092B6",
"I+ c #00679F",
"/@ c #126A90",
"VX c #37A3CC",
"Jo c #379DC5",
"V+ c #007FC2",
"MX c #127CA8",
"aO c #3D98B9",
"5@ c #18779E",
"TX c #127CAD",
"EO c #126A99",
"r@ c #179EA5",
")# c #1E8AB0",
")+ c #1877A3",
"@+ c #0C5790",
"RO c #1877A5",
"wO c #7AC9D6",
"=  c #0B8AA5",
"5+ c #4FA7C3",
"]O c #18B3F1",
" & c #05779C",
".% c #056587",
"z% c #377FB8",
"9  c #057DA4",
"fX c #68C0EC",
"R# c #30B7DB",
"S& c #05719A",
"S% c #056B93",
"L  c #0B789C",
"uo c #2A92BB",
"iO c #86BFCB",
"9O c #8CD2D9",
"@  c #1792B1",
"4@ c #0B668E",
"m# c #11739E",
"@X c #0B6C9E",
"*O c #1179AB",
"No c #E2F2F8",
"w# c #2388AD",
"Z% c #046284",
"e& c #04749C",
"Z$ c #046287",
"X& c #04749D",
"9@ c #3B98B5",
"~  c #91EEFF",
"(o c #AADDF6",
"p$ c #47A6BD",
"(X c #3B9EC4",
"<@ c #1677A2",
"(+ c #1677A5",
"Xo c #47B2D2",
"`. c #60B3DC",
"ro c #47ACCE",
"I@ c #4DB9D8",
"_X c #AAD1F8",
"_+ c #2279A0",
"y& c #037198",
"$  c #0F8BA8",
";  c #0F8BA9",
"5X c #288CB4",
"8O c #65C3CD",
"!% c #416F9D",
"q$ c #0978A0",
"$@ c #65C9D9",
"`o c #AFDBDF",
"`$ c #0F7395",
"BO c #2DB4B8",
"i. c #0F7397",
"3+ c #348EAF",
",. c #F9FFFF",
"5# c #095A85",
"tX c #0F7FA8",
"K# c #DAF1F7",
"<X c #EDD9EC",
"mX c #0F73A3",
"'o c #BBE3E7",
"J@ c #77D8E5",
"A@ c #46A3BF",
":O c #1B759A",
"s+ c #4CB6CF",
"gO c #1574A2",
"HX c #E0F8FF",
"kX c #2194BF",
"_  c #2789AA",
">& c #2D9CBA",
"=$ c #9CDBED",
"A% c #026287",
"@& c #087B9D",
"E# c #1598D8",
"a$ c #8FBEB9",
"{% c #087BA3",
"   c #08759C",
"Ko c #2D96C0",
"2% c #3998B4",
"L$ c #399EBB",
"]  c #0E7CA5",
"Fo c #A8D7E9",
"h+ c #338BB0",
"6$ c #0E7CA7",
";# c #1B6FB1",
"9. c #0E82B0",
"6& c #1A8AAA",
"&+ c #3F99B9",
":& c #2698B6",
"NX c #1A84AF",
"A$ c #016586",
"IX c #2698C3",
"y% c #076C90",
"E+ c #2C87A9",
"y+ c #63C3D1",
"g  c #1386A2",
"b% c #3895AD",
"n@ c #075A81",
"H. c #075A82",
",O c #3288A8",
">% c #82B3C4",
"8o c #1FA0B5",
"P$ c #3EA8C2",
"vX c #0772A3",
"Z@ c #3895B4",
"QX c #0D739F",
"p@ c #0098B3",
"'X c #D2F0FE",
"zX c #1380AA",
"E$ c #709ED0",
"g$ c #63BDDC",
"4$ c #1987AC",
"<$ c #44AFCC",
"Y% c #1F8EAF",
"-@ c #449DBB",
"Zo c #12A1B1",
"<+ c #196F9A",
"Ho c #44A9CE",
"x@ c #1F7CA1",
"2  c #0681A0",
"}X c #69CAF3",
"d$ c #3871A4",
"H% c #067B9F",
"u  c #067598",
"2$ c #2B96B8",
"6  c #067BA2",
"X  c #06759B",
"w& c #06759D",
"/o c #A0DCF0",
"XO c #8ECDF8",
"[X c #56BEDF",
"oX c #065D85",
"9& c #0C7CA2",
"J. c #065D87",
"|# c #0C7CA4",
"HO c #3197BC",
"r  c #0C769D",
"B$ c #0C76A2",
"so c #0C7CB1",
"p# c #1EB5DC",
"%o c #127DAC",
"nO c #81CEF6",
"H$ c #1E7FA1",
"Io c #1283B6",
"_% c #2492B3",
"-  c #0B8BA5",
"4  c #057EA1",
"-+ c #1E79A4",
"2. c #87CFFB",
"U@ c #5BC8DB",
"f% c #308EA8",
"<  c #0B85A6",
"n+ c #2A87A9",
"$O c #2486B1",
"{$ c #056088",
"7O c #4EBDBC",
"E% c #36A1BD",
"vo c #C4E8FB",
"i% c #117A9A",
"Mo c #D0EAEF",
"Z+ c #3CA8C2",
"wX c #056C9E",
"n  c #117A9F",
"Yo c #0B6D99",
"y. c #117499",
"]o c #D6EBEE",
"a# c #55BBE6",
"3# c #11688D",
"n# c #177BA1",
"oo c #42A9CD",
"{@ c #1D769A",
"S@ c #4898B3",
"|O c #1CAFB5",
"2O c #8CD3F3",
"P@ c #29B4D5",
"3O c #61C3F2",
"3$ c #238FB5",
"Q# c #B1D6F2",
"b+ c #237DA0",
"O& c #04759B",
"N& c #0A7C9F",
"v$ c #3598B8",
"ZO c #28B1BC",
"c# c #3598B9",
",% c #FAF7F5",
"F+ c #47B9CA",
"'+ c #358CAE",
"l& c #1C8BA8",
"R+ c #3B93B3",
"+% c #1C7F9D",
"i@ c #60C6E9",
")o c #7FCEF3",
"@O c #3B99BD",
"%@ c #0475B3",
"]X c #B0DFF1",
"4+ c #419AB9",
"t@ c #9DDFE3",
"^@ c #1C7396",
";+ c #1678A6",
"Ao c #27A8A2",
"s& c #03789C",
"i& c #037297",
"8+ c #41ACDD",
"'$ c #096D92",
"GX c #EDF8FF",
"dO c #2881AA",
"p% c #15819C",
"+o c #2E94BB",
"u$ c #3AA2BF",
"N@ c #0F688C",
"u+ c #46BCCF",
"R. c #3AA8C8",
"c& c #1B8EAA",
"x& c #1B8EAB",
"2@ c #095B88",
"oO c #5FBDDC",
"O@ c #78CAF4",
"|. c #0F6E97",
"QO c #0F6890",
"fo c #0F7AA6",
"/+ c #0F6E99",
"Y. c #1B7C9D",
"*. c #2195B4",
",X c #FFFBFF",
"*# c #40C1F0",
"V@ c #217DA0",
"GO c #52BED5",
"b$ c #2790B3",
">  c #0882A2",
" o c #8ACDF5",
"1X c #90C8EF",
"C  c #08769D",
"4X c #2D91B8",
"V$ c #08709A",
"q. c #0876A1",
"U$ c #C1D9F0",
"B# c #08709B",
"4. c #2D97C1",
"F$ c #0E7195",
"0$ c #08709C",
"n& c #1484A5",
":. c #52B2DC",
"A+ c #6AC8D5",
"WX c #086A97",
"`O c #4CB7EB",
"7. c #1484AA",
"1@ c #0E6B97",
"5O c #2DAFE7",
">+ c #0E6591",
":# c #64B5D0",
"X. c #1478A0",
"C. c #147EA8",
"M. c #399FC9",
"&O c #147EAD",
"co c #AEDFF8",
",+ c #146C99",
")$ c #2080A1",
"p+ c #2760A0",
"E  c #2693B3",
"&$ c #3380B9",
"3& c #2C9AB9",
"l$ c #4055A3",
"q& c #07799B",
"B& c #07799D",
"ZX c #95DEFF",
"^o c #9BD3EA",
"DX c #F1FFFF",
"G@ c #139FBE",
"B% c #0D7495",
"`+ c #2C82A7",
"7% c #0D6E90",
"qX c #076790",
"[% c #0D80A6",
"'O c #4BBAEB",
"JO c #57BCDF",
"$. c #0D80AA",
"PX c #32A1CA",
"e+ c #4AB7C3",
",# c #3890AF",
";@ c #3890B0",
"I. c #137598",
"mo c #ADDCEB",
"b& c #1988A8",
"-$ c #82D2F1",
"O$ c #3EA9C8",
"!o c #3E97B6",
"E. c #3EA9CC",
"g+ c #3E97B7",
"to c #3EA3C8",
",& c #259CB9",
"d% c #25849E",
"h$ c #82BAE1",
"+@ c #2BAFCB",
">@ c #1F7DA4",
"%& c #067CA0",
"S$ c #066A8B",
"_O c #63BEEF",
"O  c #067CA2",
"z$ c #638EBA",
"{o c #C5E6F1",
"]$ c #066A8F",
"o% c #0C7190",
":@ c #2B85A9",
"S  c #067099",
"_@ c #06587D",
"s@ c #5CC0D7",
"D& c #06709A",
"-# c #0D5CA4",
"q  c #0676A1",
"/  c #94C9EE",
"AO c #49BAC4",
"`  c #1284A6",
"wo c #F6FDFF",
"Y  c #188BAB",
"rX c #0C77A5",
")@ c #0C5F89",
"_$ c #187998",
"=# c #0063A1",
"z& c #1E8CAA",
"x$ c #49B4CB",
";o c #1885AD",
"U+ c #81C9EF",
"v  c #56B3E8",
"V. c #1E86AE",
"7o c #17A0AE",
"[O c #1DADB5",
"0@ c #4FA9C3",
"fO c #1E7AA5",
"k+ c #1E749E",
"u# c #9FE0F0",
"|% c #05799F",
"u& c #057399",
"+# c #11A5C3",
"AX c #EFFFFF",
"y@ c #80D2E2",
"jX c #2A9AC3",
"0& c #0B7A9F",
"8@ c #3089AA",
"v% c #3C9DB5",
"%% c #3C9DB8",
"*o c #0B74A5",
"$o c #117BA8",
")  c #619AB5",
"W$ c #488799",
"O# c #9ED7D8",
"@% c #2384A2",
"6+ c #3CA9D6",
"JX c #8CCEEB",
"2& c #299DB9",
"Wo c #2384A5",
"TO c #1D7DA6",
"I# c #179AD1",
"l# c #B1D7F3",
"+& c #047699",
"}$ c #046487",
"eo c #79C2D8",
">X c #E2EEFF",
"Q% c #7FC3D7",
"Do c #BDDFFD",
"t+ c #66C2D2",
"e@ c #1685A2",
"N$ c #0A77A3",
"s$ c #B6DBD9",
"z. c #C3E6FF",
"hX c #359FC3",
"zo c #3BA6C5",
"]@ c #10668B",
"M$ c #107EA9",
"r# c #3BA0C1",
"++ c #236CA5",
"vO c #3B94B3",
"U. c #16799B",
"s% c #1C7A97",
"xX c #107EAC",
"~o c #41A1BE",
"U# c #85D0EF",
"]+ c #419BB8",
"lO c #16739A",
":+ c #106C9B",
"~+ c #106694",
"bO c #66B0CD",
"X@ c #47BADB",
"0O c #A3DBE1",
"G% c #03799F",
"q% c #036186",
"W. c #4DB5D9",
"(  c #91B4D2",
"l. c #6CBDE8",
"X+ c #7ECCE2",
"!  c #72D6FF",
"~% c #97B5D3",
"j+ c #287CA7",
";$ c #78D1F5",
"g% c #3A97B1",
"e$ c #0F81A9",
"KO c #15A0C5",
"To c #0F759F",
"=o c #0F7BA7",
"lo c #3A9DC0",
"8. c #0F81B1",
"nX c #0F75A3",
"}. c #15769C",
"o# c #BBE5E8",
"lX c #1B89B5",
"Q+ c #1B719A",
"{O c #07A49B",
"j@ c #52ADC4",
"N  c #087D9E",
"X$ c #2791B7",
"p  c #08779C",
"D+ c #3FB9CA",
"pO c #52A7C7",
"|@ c #338DAC",
"UO c #338DAF",
"u. c #0E7297",
"D@ c #A8DFF1",
"q@ c #3393B7",
"qo c #70C4CC",
"P. c #147398",
"x# c #3FA7C6",
"/. c #FEFFFF",
"i# c #BAE2E5",
"9X c #0E72A2",
"1# c #207B9B",
"7+ c #149DD4",
"4o c #B4E7FD",
"H+ c #76CBE2",
"J# c #51B6D2",
"uX c #2694BA",
"J% c #0780A3",
"sX c #CCFDFF",
"k# c #64B0DE",
"5o c #EBF9FF",
"#& c #0D81A2",
"`@ c #075C7F",
"t& c #07749D",
"/# c #329CBE",
"7# c #07567D",
"w  c #0774A0",
"9# c #0D759A",
"Z# c #0D81AB",
"qO c #8ECFD7",
"t  c #0D759D",
"A# c #1382AD",
"Q@ c #3E98B8",
"5& c #1F90AF",
"q# c #1983A8",
"IO c #3E98B9",
"%. c #1F96B8",
"LX c #3EAAD1",
"O+ c #7BDBE2",
"#X c #1983AC",
"#o c #197DA7",
"l  c #1F96BC",
"+$ c #4AB8D7",
"B  c #06779B",
"P+ c #136AA6",
"## c #69BAE4",
"9% c #066588",
"F@ c #81D6E5",
"7  c #067DA4",
"d# c #4AC4F1",
"f. c #319FBF",
"BX c #2B98C1",
":  c #128BAA",
"w@ c #137CC3",
"FX c #FCFFFF",
";& c #1E93B0",
"jO c #0C5A86",
"$$ c #3788AE",
"K@ c #B2E1EF",
"Y+ c #68B7CE",
"d. c #1886AC",
"K+ c #55BDC6",
"c@ c #187AA3",
"X# c #1898C7",
"D# c #1E8DB4",
"<% c #4FB0C6",
"6@ c #1E7BA1",
"j# c #0064B0",
"UX c #1E8DB8",
",  c #0580A1",
"B. c #2488B0",
"}% c #057AA0",
".  c #05749A",
"2+ c #2A83A7",
"w. c #05749E",
"M  c #0B7B9F",
"Qo c #308AAA",
"J  c #0B7BA0",
"$+ c #7ACCE9",
"'@ c #0B6387",
"{+ c #0586B9",
"m@ c #0B5D82",
"|+ c #177D98",
"bX c #0B6F9B",
"m  c #117CA2",
"C# c #0B7BAA",
"a% c #177796",
"8# c #0B638F",
".o c #D6EDF2",
"0X c #0B6F9D",
"&o c #0B75A7",
"!X c #117CA7",
"0o c #5BB8DF",
"#+ c #5BC4EE",
"mO c #5BC4F1",
"_o c #73C8E0",
"K% c #0A84A4",
" % c #046588",
"s# c #C3EDF9",
"(. c #D7BAFC",
"X% c #0A6C8F",
"t. c #045F88",
"). c #CACDFD",
"1$ c #35A0BE",
"I% c #1085A8",
"o+ c #5AC1E0",
"[  c #0A78A2",
"#O c #2F8DB5",
"do c #0A729E",
"F  c #107FA5",
"7& c #1686A7",
"2o c #FAFFFF",
"S. c #0A6C9A",
"G$ c #167A9B",
"]. c #3B95B7",
"[@ c #166E91",
";O c #166E94",
"i$ c #47A9C7",
"x+ c #166E9A",
"-% c #DBF1FE",
"po c #1686B8",
"W@ c #4DAAC3",
"3  c #0380A1",
"tO c #6CD0F1",
":% c #5FADB0",
"t$ c #228EB4",
",$ c #4DB0CC",
"#$ c #84B6B4",
"A& c #037499",
"($ c #2889AA",
"!$ c #BCD1E0",
"=@ c #53ABC3",
"C$ c #036287",
"d@ c #40C3D2",
"j& c #0F829F",
"L@ c #C2E4F5",
"y  c #09759A",
"w+ c #21AFBE",
";. c #34A3C2",
"*& c #0F82A4",
"a. c #0F7697",
"*@ c #6CBEEE",
"]% c #0F82A8",
"Y# c #A3DCF5",
"G  c #0F82AA",
"s  c #1B90AB",
"^$ c #40A5C0",
"_# c #1583AD",
"G+ c #8ACFEA",
"k. c #46ACC8",
"$X c #1B7EA4",
"a@ c #0EA9BF",
"b  c #1B84AF",
"SO c #5EC2C9",
"3o c #E6FCFF",
"f& c #087896",
"}@ c #2780A2",
")% c #2D99B8",
"j. c #33A6C0",
"y# c #52BADA",
"[o c #CDE9EC",
">o c #2D93B8",
"}# c #0878A1",
"*% c #779FB9",
"f  c #1486A3",
"+X c #086691",
"p. c #0E7398",
"%# c #08A2D8",
"6o c #F2F8FF",
"SX c #F8FFFF",
"6% c #147493",
"no c #A8DAEC",
"yo c #339AC1",
"T  c #1A8DAA",
"A. c #0E739C",
"kO c #0E678E",
"J+ c #51BDC6",
"9o c #1AA5CC",
"<O c #3F96B3",
")X c #58AFD9",
"5. c #1A8DB3",
"v+ c #1A759B",
"S# c #1A87B2",
"o@ c #45B5DD",
"gX c #45A9D1",
"n% c #2C8AA6",
"L+ c #63CCD3",
">O c #267DA0",
"%  c #0D88A5",
"xO c #267DA1",
"y$ c #2C96B8",
"c  c #3FA2D7",
"Co c #008990",
"0  c #077BA4",
"$% c #3291AF",
"@$ c #57A6C2",
"+. c #0D7CA0",
"XX c #07638C",
"Oo c #389EC2",
"8X c #0D709D",
"RX c #0D76A5",
"!+ c #136B96",
"(O c #3E93B7",
"bo c #ADDEF8",
"&# c #38BCF1",
";X c #8EE2FE",
".$ c #1F8BB1",
"E@ c #3E93BB",
"#% c #2586A4",
"i+ c #7BD6E2",
"Y$ c #76AEE6",
"-X c #63CCF9",
"~@ c #2580A2",
"4O c #69C7F0",
"7@ c #2580A4",
"V& c #06789B",
"o  c #06789D",
"8  c #067EA5",
"T. c #319AB6",
"}o c #1E949F",
"W+ c #257AA2",
"A  c #06729A",
"u% c #0C7394",
"8$ c #0678A3",
"e. c #06729C",
"r. c #066C98",
"G. c #06608A",
"a  c #1286A7",
"6O c #49BCC6",
"f$ c #0D5EAE",
"M@ c #0C6188",
"c$ c #3DA2C0",
"0# c #127AA1",
"K. c #12749A",
"r$ c #1887AD",
"h# c #0071B9",
"M+ c #439DBC",
"3. c #50A8E2",
"T@ c #005FA5",
"P# c #0059A0",
"4% c #2483A2",
"1  c #05819F",
"-. c #2A9CB9",
"&  c #0B88A3",
"(# c #248FB5",
"e% c #056F93",
"D% c #05759E",
"[# c #05759F",
"1+ c #2477A2",
"g@ c #004DA4",
"V% c #0B7094",
"j$ c #5C92D1",
"=+ c #2A7EA8",
" X c #0B6A92",
"EX c #0B76A5",
"7X c #11719A",
"B@ c #177295",
"m$ c #1784AB",
"d+ c #86C9E6",
",@ c #1778A0",
"YX c #1784B1",
"Go c #48B3D4",
"C& c #04789A",
"d& c #04789B",
"Vo c #A4DAE2",
"R% c #2F9AB8",
"v. c #D6E2FF",
"9$ c #04668F",
"K  c #0A799D",
"8% c #0A678B",
"1. c #F4FFFF",
"k  c #168DAA",
"7$ c #0A79A4",
"l% c #5AA4C0",
"V# c #0A79A5",
"aX c #67B5F2",
"-o c #1080AA",
"`# c #1080AC",
"1% c #41A3BE",
"=% c #73A5D3",
".@ c #6CCBDE",
"M% c #1C7C9C",
"&. c #229BB8",
"~X c #167BA4",
">$ c #3C5198",
"^% c #4DB1C8",
"r+ c #97D5E3",
"k% c #91BCCF",
"~$ c #4DB1C9",
"ho c #1C88B2",
"%O c #1C82AE",
"W  c #41A3CE",
"@o c #2289B2",
"r% c #036386",
"OO c #72BAD5",
"h  c #0F89A3",
".& c #03759D",
"*X c #2890B5",
"[$ c #03638A",
"e  c #036F9B",
"@. c #097CA4",
"D$ c #096A90",
"x% c #F3F0F0",
"f# c #4DB7E4",
"{  c #09769F",
"R$ c #97C9EB",
"#  c #1590AF",
"m+ c #3492B2",
"D. c #096A94",
"P  c #0F7DA2",
"'  c #0F7DA3",
"}+ c #0A55A7",
"*+ c #348CAF",
"-O c #0F6B90",
"sO c #348CB0",
"cX c #0976A7",
"W# c #59C5ED",
"DO c #90D7E2",
"Z. c #0F77A1",
":X c #AFEBFF",
"Q$ c #9198C8",
"yO c #1BA9D2",
"Uo c #0F7DAF",
"ao c #0F83B7",
"zO c #1B799E",
"1& c #4CAEC6",
"c% c #4CA8BF",
"T$ c #77CADE",
"F% c #0278A0",
"g& c #08799D",
"|X c #6BC8F4",
"C% c #08678A",
"YO c #2781A9",
"^O c #277BA2",
"C@ c #2D88A9",
"$& c #0879A0",
"x. c #F2FFFF",
"8& c #0E80A3",
"o$ c #339BBE",
"cO c #3389AA",
"eX c #0873A1",
"k& c #1A88A4",
"4# c #0E6289",
"z  c #2DA6DC",
"B+ c #45AAC9",
"2X c #5EB1DA",
"3X c #3F9DC4",
"=. c #2696B4",
"T% c #2696B5",
"b# c #2083AB",
"i  c #077699",
"io c #2089B9",
"q+ c #06A9AD",
"K$ c #3298B5",
"0% c #076489",
"h% c #389FB8",
"M& c #0D7DA1",
"!@ c #328CAC",
"`X c #CCF3FE",
"R  c #1991AA",
"@@ c #44B9CB",
"/$ c #3899B7",
"'# c #0D7DA8",
"L# c #82C9E4",
/* pixels */
"  . X o O + @ # $ % & * = - ; : > , < 1 2 3 4 5 6 7 8 9 0 q w e ",
"r t y u i p a s d f g h j k l z x c v b n m M N B V C Z A S D D ",
"F G H J K L P I U Y T R E W Q ! ~ ^ / ( ) _ ` ' ] [ { } | w  ...",
"X.o.O.+.@.#.$.%.&.*.=.-.;.:.>.,.<.<.1.2.3.4.5.6.7.8.9.0.q.w.e.r.",
"t.y.u.i.p.a.s.d.f.g.h.j.k.l.z.x.c.v.b.n.m.M.N.B.V.C.Z.A.S.D.F.G.",
"H.J.K.L.P.I.U.Y.T.R.E.W.Q.!.<.~.^./.(.)._.`.'.].[.{.}.|. X.XXXoX",
"OX+X@X#X$X%X&X*X=X-X;X:X>X<.<.<.<.<./.,X<X1X2X3X4X5X6X7X8X9X0XqX",
"wXeXrXtXyXuXiXpXaXsX<.<.<.dX<.<.<.<.^.<.<.<.fXgXhXjXkXlXzXxXcXvX",
"bXnXmXMXNXBXVXCXZXAX<.<.SXSXDXFXGXHXSX<.<.FXJXKXLXPXIXUXYXTXRXEX",
"WXQX!X~X^X/X(X)X_X<.<.<.<.`X'X<.]X[X{X}X|X o.oXoooOo+o@o#o$o%o&o",
"*o=o-o;o:o>o,o<o1o<.<.2o3o4o5o6o2o7o8o9o0oqowoeorotoyouoiopoaoso",
"dofogohojokolozoxocovobonomoMoNoBoVoCoZoAoSoDoFoGoHoJoKoLoPoIoUo",
"YoToRoEoWoQo!o~o^o/o(o)o_o`o'o]o[o{o}o|o O.OXOoOOO+O@O#O$O%O&O*O",
"=O-O;O:O>O,O<O1O2O3O4O5O6O7O8O9O0OqOwOeOrOtOyOuOiOpOaOsOdOfOgOhO",
"jOkOlOzOxOcOvObOnOmOMONOBOVOCOZOAOSODOFOGOHOJOKOLOPOIOUOYOTOROEO",
"WOQO!O~O^O/O(O)O_O`O'O]O[O{O}O|O +.+X+o+O+++@+#+$+%+&+*+=+-+;+:+",
">+,+<+1+2+3+4+5+6+7+8+9+0+q+w+e+r+t+y+u+i+p+a+s+d+f+g+h+j+k+l+z+",
"x+c+v+b+n+m+M+N+B+V+C+Z+A+S+D+F+G+H+J+K+L+P+I+U+Y+T+R+E+W+Q+!+~+",
"^+/+(+)+_+`+'+]+[+{+}+|+ @.@X@o@O@+@@@#@$@%@&@*@=@-@;@:@>@,@<@1@",
"2@3@4@5@6@7@8@9@0@q@w@e@r@t@y@u@i@p@a@s@d@f@g@h@j@k@l@z@x@c@v@b@",
"n@m@M@N@B@V@C@Z@A@S@D@F@G@H@J@K@L@P@I@U@Y@T@R@E@W@Q@!@~@^@/@(@)@",
"_@`@'@]@[@{@}@|@ #.#X#o#O#+#@###$#%#&#*#=#-#;#:#>#,#<#1#2#3#4#5#",
"6#7#8#9#0#q#w#e#r#t#y#u#i#p#a#s#d#f#g#h#j#k#l#z#x#c#v#b#n#m#M#N#",
"B#V#C#Z#A#S#D#F#G#H#J#K#L#P#I#U#Y#T#R#E#W#Q#!#~#^#/#(#)#_#`#'#]#",
"[#{#}#|#-o $.$X$o$O$+$@$#$$$%$&$*$=$-$;$:$>$,$<$1$2$3$4$5$6$7$8$",
"9$0$q$} w$e$r$t$y$u$i$p$a$s$d$f$g$h$j$k$l$z$x$c$v$b$n$m$M$N$B$V$",
"C$Z$A$S$D$F$G$H$J$K$L$P$I$U$Y$T$R$E$W$Q$!$~$^$/$($)$_$`$'$]$[${$",
"}$|$ %.%X%o%O%+%@%#%$%%%&%*%=%-%;%:%>%,%<%1%2%3%4%5%6%7%8%9%0%q%",
"w%e%r%t%y%u%i%p%a%s%d%f%g%h%j%k%l%z%x%c%v%b%n%m%M%N%B%V%C%Z%A%S%",
"D%F%G%H%J%K%L%P%I%U%Y%T%R%E%W%Q%!%~%^%/%(%)%_%`%'%]%[%{%}%|% &.&",
"X&o&O&+&@&#&$&%&&&*&=&-&;&:&>&,&<&1&2&3&4&5&6&7&8&9&0&q&w&e&r&t&",
"y&u&i&p&a&s&d&f&g&h&M j&e@k&l&z&x&c&v&T b&n&m&M&N&B&V&C&Z&A&S&D&"
};
